<svg width="600" height="600" viewBox="0 0 600 600" fill="none" xmlns="http://www.w3.org/2000/svg">
<path d="M63.6905 176.898C62.9427 176.533 62.9427 175.467 63.6905 175.101L137.439 139.052C137.782 138.884 138 138.535 138 138.153V110.619C138 109.876 137.217 109.392 136.552 109.725L30.5521 162.82C30.2137 162.989 30 163.335 30 163.714V188.286C30 188.665 30.2137 189.011 30.5521 189.18L136.552 242.275C137.217 242.608 138 242.124 138 241.381V213.846C138 213.464 137.782 213.116 137.439 212.948L63.6905 176.898Z" fill="white"/>
<path fill-rule="evenodd" clip-rule="evenodd" d="M63.6905 176.898C62.9427 176.533 62.9427 175.467 63.6905 175.102L137.439 139.052C137.782 138.884 138 138.536 138 138.154V110.619C138 109.876 137.217 109.392 136.552 109.725L30.5521 162.82C30.2137 162.989 30 163.335 30 163.714V188.286C30 188.665 30.2137 189.011 30.5521 189.18L136.552 242.275C137.217 242.608 138 242.124 138 241.381V213.846C138 213.464 137.782 213.116 137.439 212.948L63.6905 176.898ZM84.6234 176L141.831 203.964C145.606 205.809 148 209.644 148 213.846V241.381C148 249.561 139.388 254.88 132.074 251.216L26.0736 198.121C22.3509 196.257 20 192.45 20 188.286V163.714C20 159.55 22.3508 155.743 26.0736 153.879L132.074 100.784C139.388 97.1204 148 102.439 148 110.619V138.154C148 142.356 145.606 146.191 141.831 148.036L84.6234 176Z" fill="#05060F"/>
<path d="M536.31 424.101C537.057 424.467 537.057 425.533 536.31 425.898L462.561 461.948C462.218 462.116 462 462.464 462 462.846V490.381C462 491.124 462.783 491.608 463.448 491.275L569.448 438.18C569.786 438.011 570 437.665 570 437.286V412.714C570 412.335 569.786 411.989 569.448 411.82L463.448 358.725C462.783 358.392 462 358.875 462 359.619V387.153C462 387.535 462.218 387.884 462.561 388.052L536.31 424.101Z" fill="white"/>
<path fill-rule="evenodd" clip-rule="evenodd" d="M536.31 424.102C537.057 424.467 537.057 425.533 536.31 425.899L462.561 461.948C462.218 462.116 462 462.465 462 462.847V490.381C462 491.124 462.783 491.608 463.448 491.275L569.448 438.18C569.786 438.011 570 437.665 570 437.286V412.714C570 412.335 569.786 411.989 569.448 411.82L463.448 358.725C462.783 358.392 462 358.876 462 359.619V387.154C462 387.536 462.218 387.884 462.561 388.052L536.31 424.102ZM515.377 425L458.169 397.036C454.394 395.191 452 391.356 452 387.154V359.619C452 351.439 460.612 346.121 467.926 349.784L573.926 402.879C577.649 404.743 580 408.55 580 412.714V437.286C580 441.45 577.649 445.257 573.926 447.121L467.926 500.216C460.612 503.88 452 498.561 452 490.381V462.847C452 458.644 454.394 454.809 458.169 452.964L515.377 425Z" fill="#05060F"/>
<path d="M245.228 375.908C245.228 379.604 245.228 384.62 248.667 388.053C252.634 392.013 260.833 392.013 266.652 392.013L272 392.013C272.552 392.013 273 392.461 273 393.013L273 418.532C273 419.06 272.591 419.498 272.064 419.528C267.8 419.772 261.48 420 256.072 420C244.964 420 233.062 419.208 224.862 412.343C214.812 404.158 214.547 392.805 214.547 382.244L214.547 334.191C214.547 328.383 212.96 321.782 210.051 318.35C207.853 315.912 204.302 314.375 200.856 313.737C200.366 313.647 200 313.228 200 312.73L200 287.006C200 286.508 200.366 286.089 200.856 285.998C204.302 285.361 207.853 283.824 210.051 281.386C212.96 277.954 214.547 271.353 214.547 265.545L214.547 217.756C214.547 207.195 214.812 195.842 224.862 187.657C233.062 180.792 244.964 180 256.072 180C261.48 180 267.8 180.228 272.063 180.472C272.591 180.502 273 180.939 273 181.468L273 206.987C273 207.539 272.552 207.987 272 207.987L266.652 207.987C260.833 207.987 252.634 207.987 248.667 211.947C245.228 215.38 245.228 220.396 245.228 224.092L245.228 266.865C245.228 283.936 242.272 291.172 230.656 299.013C230.053 299.419 230.053 300.316 230.656 300.723C242.272 308.564 245.228 315.8 245.228 332.871L245.228 375.908Z" fill="#3DBC4A"/>
<path fill-rule="evenodd" clip-rule="evenodd" d="M255.463 380.115C255.258 379.09 255.228 377.883 255.228 375.908L255.228 332.871C255.228 323.993 254.508 316.176 251.434 309.27C249.83 305.665 247.72 302.597 245.179 299.868C247.72 297.139 249.83 294.071 251.434 290.466C254.508 283.56 255.228 275.743 255.228 266.865L255.228 224.092C255.228 222.117 255.258 220.91 255.463 219.885C255.551 219.447 255.642 219.208 255.699 219.09C255.903 218.993 256.666 218.641 258.461 218.369C260.866 218.005 263.616 217.987 266.652 217.987L272 217.987C278.075 217.987 283 213.062 283 206.987L283 181.468C283 175.687 278.503 170.824 272.635 170.488C268.22 170.236 261.705 170 256.072 170C245.292 170 229.811 170.511 218.496 179.945C204.544 191.346 204.546 207.321 204.547 217.469L204.547 265.545C204.547 267.601 204.258 269.822 203.738 271.74C203.482 272.685 203.197 273.457 202.923 274.041C202.789 274.328 202.669 274.545 202.575 274.698C202.553 274.733 202.534 274.763 202.516 274.789C202.136 275.103 200.982 275.806 199.038 276.165C194.052 277.087 190 281.442 190 287.006L190 312.73C190 318.294 194.052 322.649 199.038 323.571C200.982 323.93 202.136 324.633 202.516 324.946C202.534 324.973 202.553 325.003 202.575 325.038C202.669 325.191 202.789 325.407 202.923 325.695C203.197 326.279 203.482 327.051 203.738 327.996C204.258 329.914 204.547 332.135 204.547 334.191L204.547 382.244C204.547 382.339 204.547 382.435 204.547 382.531C204.546 392.679 204.544 408.654 218.496 420.055C229.81 429.489 245.291 430 256.072 430C261.705 430 268.22 429.764 272.635 429.512C278.503 429.176 283 424.313 283 418.532L283 393.013C283 386.938 278.075 382.013 272 382.013L266.652 382.013C263.616 382.013 260.866 381.994 258.461 381.631C256.666 381.359 255.903 381.007 255.699 380.91C255.642 380.792 255.551 380.553 255.463 380.115ZM255.758 381.007C255.758 381.006 255.752 380.998 255.739 380.984C255.751 381.001 255.757 381.008 255.758 381.007ZM224.862 412.343C233.062 419.208 244.964 420 256.072 420C261.48 420 267.8 419.772 272.064 419.528C272.591 419.498 273 419.06 273 418.532L273 393.013C273 392.461 272.552 392.013 272 392.013L266.652 392.013C260.833 392.013 252.634 392.013 248.667 388.053C245.228 384.62 245.228 379.604 245.228 375.908L245.228 332.871C245.228 319.88 243.516 312.585 237.578 306.384C237.55 306.354 237.522 306.325 237.494 306.296C236.168 304.923 234.635 303.603 232.865 302.286C232.166 301.766 231.43 301.246 230.656 300.723C230.053 300.316 230.053 299.419 230.656 299.013C231.43 298.49 232.166 297.97 232.865 297.45C234.635 296.132 236.168 294.813 237.494 293.44C237.522 293.411 237.55 293.382 237.578 293.352C243.516 287.151 245.228 279.856 245.228 266.865L245.228 224.092C245.228 220.396 245.228 215.38 248.667 211.947C252.634 207.987 260.833 207.987 266.652 207.987L272 207.987C272.552 207.987 273 207.539 273 206.987L273 181.468C273 180.939 272.591 180.502 272.063 180.472C267.8 180.228 261.48 180 256.072 180C244.964 180 233.062 180.792 224.862 187.657C214.812 195.842 214.547 207.195 214.547 217.756L214.547 265.545C214.547 271.353 212.96 277.954 210.051 281.386C207.853 283.824 204.302 285.361 200.856 285.998C200.366 286.089 200 286.508 200 287.006L200 312.73C200 313.228 200.366 313.647 200.856 313.737C204.302 314.375 207.853 315.912 210.051 318.35C212.96 321.782 214.547 328.383 214.547 334.191L214.547 382.244C214.547 392.805 214.812 404.158 224.862 412.343ZM255.758 218.993C255.757 218.992 255.751 218.999 255.739 219.016C255.752 219.002 255.758 218.994 255.758 218.993Z" fill="#05060F"/>
<path d="M364.533 224.909C364.533 221.228 364.533 216.232 361 212.814C356.924 208.87 348.5 208.87 342.522 208.87L337 208.87C336.448 208.87 336 208.422 336 207.87L336 182.467C336 181.938 336.411 181.501 336.939 181.471C341.319 181.228 347.826 181 353.391 181C364.804 181 377.033 181.789 385.457 188.625C395.783 196.776 396.054 208.081 396.054 218.598L396.054 266.451C396.054 272.235 397.685 278.809 400.674 282.227C402.936 284.659 406.593 286.191 410.14 286.823C410.631 286.911 411 287.331 411 287.831L411 313.432C411 313.932 410.631 314.352 410.14 314.44C406.593 315.072 402.936 316.604 400.674 319.036C397.685 322.454 396.054 329.028 396.054 334.812L396.054 382.402C396.054 392.919 395.783 404.224 385.457 412.375C377.033 419.211 364.804 420 353.391 420C347.826 420 341.319 419.772 336.939 419.529C336.411 419.499 336 419.062 336 418.533L336 393.13C336 392.578 336.448 392.13 337 392.13L342.522 392.13C348.5 392.13 356.924 392.13 361 388.186C364.533 384.768 364.533 379.772 364.533 376.091L364.533 333.497C364.533 316.506 367.566 309.299 379.486 301.495C380.105 301.09 380.105 300.173 379.486 299.768C367.566 291.964 364.533 284.757 364.533 267.766L364.533 224.909Z" fill="#664EFF"/>
<path fill-rule="evenodd" clip-rule="evenodd" d="M356.257 220.382C356.507 221.595 356.533 222.963 356.533 224.909L356.533 267.766C356.533 276.549 357.277 284.028 360.268 290.548C362.071 294.478 364.535 297.737 367.585 300.631C364.535 303.526 362.071 306.785 360.268 310.715C357.277 317.235 356.533 324.714 356.533 333.497L356.533 376.091C356.533 378.037 356.507 379.405 356.257 380.618C356.033 381.7 355.718 382.164 355.437 382.437C355.246 382.622 354.202 383.298 351.314 383.721C348.624 384.116 345.609 384.13 342.522 384.13L337 384.13C332.029 384.13 328 388.159 328 393.13L328 418.533C328 423.271 331.691 427.249 336.494 427.516C340.993 427.766 347.651 428 353.391 428C364.526 428 379.559 427.434 390.455 418.621C404.055 407.856 404.054 392.703 404.054 382.49L404.054 334.812C404.054 332.62 404.37 330.257 404.948 328.191C405.519 326.149 406.196 324.929 406.617 324.397C407.328 323.705 409.061 322.758 411.544 322.316C415.665 321.581 419 317.995 419 313.432L419 287.831C419 283.268 415.665 279.682 411.544 278.947C409.061 278.505 407.328 277.558 406.617 276.865C406.196 276.334 405.519 275.114 404.948 273.072C404.37 271.006 404.054 268.643 404.054 266.451L404.054 218.51C404.054 208.297 404.055 193.144 390.455 182.379C379.559 173.566 364.526 173 353.391 173C347.651 173 340.993 173.234 336.494 173.484C331.691 173.751 328 177.729 328 182.467L328 207.87C328 212.841 332.029 216.87 337 216.87L342.522 216.87C345.609 216.87 348.624 216.884 351.314 217.279C354.202 217.702 355.246 218.378 355.437 218.563C355.718 218.836 356.033 219.3 356.257 220.382ZM385.457 188.625C377.033 181.789 364.804 181 353.391 181C347.826 181 341.319 181.228 336.939 181.471C336.411 181.501 336 181.938 336 182.467L336 207.87C336 208.422 336.448 208.87 337 208.87L342.522 208.87C348.5 208.87 356.924 208.87 361 212.814C364.533 216.232 364.533 221.228 364.533 224.909L364.533 267.766C364.533 281.727 366.581 289.082 373.924 295.591C373.955 295.619 373.986 295.646 374.018 295.674C375.052 296.584 376.191 297.478 377.442 298.372C378.092 298.837 378.773 299.301 379.486 299.768C380.105 300.173 380.105 301.09 379.486 301.495C378.773 301.962 378.092 302.426 377.442 302.891C376.191 303.785 375.052 304.679 374.018 305.589C373.986 305.616 373.955 305.644 373.924 305.672C366.581 312.181 364.533 319.536 364.533 333.497L364.533 376.091C364.533 379.772 364.533 384.768 361 388.186C356.924 392.13 348.5 392.13 342.522 392.13L337 392.13C336.448 392.13 336 392.578 336 393.13L336 418.533C336 419.062 336.411 419.499 336.939 419.529C341.319 419.772 347.826 420 353.391 420C364.804 420 377.033 419.211 385.457 412.375C395.783 404.224 396.054 392.919 396.054 382.402L396.054 334.812C396.054 329.028 397.685 322.454 400.674 319.036C402.936 316.604 406.593 315.072 410.14 314.44C410.631 314.352 411 313.932 411 313.432L411 287.831C411 287.331 410.631 286.911 410.14 286.823C406.593 286.191 402.936 284.659 400.674 282.227C397.685 278.809 396.054 272.235 396.054 266.451L396.054 218.598C396.054 208.081 395.783 196.776 385.457 188.625Z" fill="#664EFF"/>
</svg>
